Coordinates
version=1
nRows=24
nColumns=24
inDegrees=yes

Units are S.I. units (second, meters, Newtons, ...)
Angles are in degrees.

endheader
time	pelvis_tilt	pelvis_list	pelvis_rotation	pelvis_tx	pelvis_ty	pelvis_tz	hip_flexion_r	hip_adduction_r	hip_rotation_r	knee_angle_r	ankle_angle_r	subtalar_angle_r	mtp_angle_r	hip_flexion_l	hip_adduction_l	hip_rotation_l	knee_angle_l	ankle_angle_l	subtalar_angle_l	mtp_angle_l	lumbar_extension	lumbar_bending	lumbar_rotation
      3.92000000	     -8.71446145	     -9.54470849	      0.34297033	     -0.97598303	     -0.01815328	      0.66119210	     13.62675228	     12.81864913	     -6.99913445	    -11.57664644	      0.50193939	     -3.46438499	      4.46538639	     30.16609136	    -16.66140796	     -6.30191447	    -68.91476486	     -7.10934382	     19.50253685	     32.66235134	      3.79594331	      9.90888321	     -0.33820884
      3.92500000	     -8.68321521	     -9.26138367	     -0.08273636	     -0.96918809	     -0.01716326	      0.66173833	     12.68101246	     12.68682671	     -6.39755055	    -10.87955412	      0.59000016	     -3.30637559	      4.40938458	     30.82993377	    -16.48240849	     -6.75353681	    -68.35806389	     -6.98522910	     19.54936957	     32.49022419	      3.72785539	      9.64244553	      0.21860979
      3.93000000	     -8.66069861	     -8.98246933	     -0.49906150	     -0.96240778	     -0.01629041	      0.66224513	     11.76469230	     12.53601430	     -5.82715897	    -10.20899303	      0.68539575	     -3.12901191	      4.35231170	     31.48731186	    -16.30617237	     -7.20508388	    -67.73796500	     -6.85784067	     19.53861883	     32.27037556	      3.66876407	      9.38557143	      0.75844274
      3.93500000	     -8.63427325	     -8.70819100	     -0.92215596	     -0.95565869	     -0.01552097	      0.66274871	     10.86338477	     12.37351624	     -5.25973275	     -9.56422795	      0.78765179	     -2.94716320	      4.28711298	     32.11701474	    -16.13962991	     -7.65973446	    -67.05200482	     -6.73155208	     19.47196955	     31.98634062	      3.60181524	      9.13795246	      1.30428366
      3.94000000	     -8.61054856	     -8.44107523	     -1.34033604	     -0.94892474	     -0.01486750	      0.66323517	      9.98400799	     12.19988212	     -4.71120069	     -8.94481059	      0.90152909	     -2.75894745	      4.22055675	     32.73036215	    -15.98181598	     -8.11100093	    -66.30309265	     -6.60211843	     19.36591639	     31.64862498	      3.53636276	      8.89806732	      1.84022898
      3.94500000	     -8.58618128	     -8.18358482	     -1.75495388	     -0.94221743	     -0.01432769	      0.66371575	      9.12432837	     12.01970478	     -4.18094048	     -8.35090882	      1.02481907	     -2.56242227	      4.15718018	     33.32358911	    -15.83603212	     -8.55596451	    -65.49208172	     -6.46739756	     19.23121974	     31.25617419	      3.46728076	      8.66913312	      2.37068574
      3.95000000	     -8.56663734	     -7.93610126	     -2.16456390	     -0.93551561	     -0.01390715	      0.66416285	      8.28919701	     11.83169057	     -3.67689636	     -7.78373355	      1.16316720	     -2.35421086	      4.10816745	     33.89984213	    -15.69740023	     -8.98982252	    -64.61675179	     -6.32860807	     19.07833176	     30.82303962	      3.40152072	      8.45241969	      2.88755441
      3.95500000	     -8.49160273	     -7.73210300	     -2.56800218	     -0.92882086	     -0.01356609	      0.66462044	      7.39786764	     11.67723172	     -3.15183098	     -7.21850524	      1.29147405	     -2.18137334	      4.02667356	     34.39672814	    -15.61457431	     -9.41410439	    -63.70195672	     -6.12193398	     19.01157718	     30.16591290	      3.27454157	      8.28186489	      3.39501096
      3.96000000	     -8.53212878	     -7.48565293	     -2.94620671	     -0.92216337	     -0.01342078	      0.66500688	      6.68303398	     11.45632775	     -2.74177700	     -6.72466535	      1.48155920	     -1.93622344	      4.04807345	     35.00115753	    -15.44947990	     -9.79356673	    -62.68111287	     -6.01948442	     18.79727199	     29.77295322	      3.27936479	      8.06804446	      3.87146888
      3.96500000	     -8.51531891	     -7.26690005	     -3.34191428	     -0.91551826	     -0.01333153	      0.66540000	      5.91707237	     11.25271440	     -2.32324633	     -6.24694231	      1.67178543	     -1.67342906	      4.09327545	     35.50640815	    -15.33506813	    -10.19620768	    -61.60012829	     -5.87715190	     18.65565858	     29.31201239	      3.21026342	      7.88507793	      4.37353950
      3.97000000	     -8.45044544	     -7.09025825	     -3.71943379	     -0.90890776	     -0.01333407	      0.66574122	      5.11476199	     11.07584939	     -1.91134172	     -5.78870864	      1.87837877	     -1.42434711	      4.17476567	     35.94540877	    -15.24920187	    -10.55888056	    -60.47550502	     -5.68425710	     18.58330550	     28.70376896	      3.08063809	      7.74805071	      4.87182689
      3.97500000	     -8.47985043	     -6.88508522	     -4.06173177	     -0.90225694	     -0.01349627	      0.66605245	      4.44342968	     10.86231707	     -1.57640751	     -5.37101379	      2.09548005	     -1.19725218	      4.25967145	     36.45812588	    -15.10679677	    -10.87927036	    -59.24543006	     -5.57199473	     18.52282267	     28.27573686	      3.07589113	      7.57320681	      5.28739530
      3.98000000	     -8.41332147	     -6.73300190	     -4.42130540	     -0.89566697	     -0.01370690	      0.66632846	      3.68378899	     10.68544758	     -1.19725645	     -4.98138331	      2.34722526	     -0.94229044	      4.40640061	     36.83705246	    -15.02416646	    -11.19797444	    -57.97476415	     -5.38184602	     18.52588954	     27.70685410	      2.94162319	      7.46424933	      5.76064157
      3.98500000	     -8.42986679	     -6.55780902	     -4.73921645	     -0.88903513	     -0.01405344	      0.66657102	      3.04192525	     10.48194743	     -0.89329147	     -4.63108532	      2.58988273	     -0.73659971	      4.52036938	     37.27542496	    -14.88567532	    -11.45834477	    -56.59563951	     -5.26964293	     18.61031731	     27.30060834	      2.91885734	      7.32339088	      6.16256693
      3.99000000	     -8.39987526	     -6.41513640	     -5.05676171	     -0.88243403	     -0.01446898	      0.66675740	      2.36961635	     10.29780865	     -0.56869075	     -4.31771947	      2.86513385	     -0.52985891	      4.64997030	     37.63262389	    -14.76900206	    -11.69526078	    -55.15595844	     -5.12807687	     18.75564259	     26.88130815	      2.83341691	      7.22247944	      6.57948350
      3.99500000	     -8.39873304	     -6.28776684	     -5.32205911	     -0.87579334	     -0.01504828	      0.66691147	      1.74035189	     10.12655845	     -0.27232553	     -4.02535826	      3.19475795	     -0.36960611	      4.75795865	     38.00690919	    -14.63407510	    -11.85961801	    -53.65253581	     -5.00530626	     19.00407348	     26.54527306	      2.79592933	      7.12366399	      6.93816631
      4.00000000	     -8.29961533	     -6.17199994	     -5.63824401	     -0.86924973	     -0.01555944	      0.66699981	      1.04538690	      9.94433701	      0.08067645	     -3.80308861	      3.50840892	     -0.19615272	      4.89493917	     38.21125565	    -14.51511976	    -12.05355317	    -52.06746560	     -4.83582667	     19.26972412	     26.05300762	      2.61725204	      7.05415804	      7.37174423
      4.00500000	     -8.28889360	     -6.06228865	     -5.88120522	     -0.86260272	     -0.01625319	      0.66706222	      0.44793847	      9.77502945	      0.35496690	     -3.58378884	      3.82117457	     -0.07706794	      4.98075017	     38.49902605	    -14.36242057	    -12.15363419	    -50.41030777	     -4.74073488	     19.67912875	     25.70279904	      2.56835703	      6.97841605	      7.71870681
      4.01000000	     -8.30562176	     -5.97568113	     -6.09810256	     -0.85600964	     -0.01708829	      0.66704275	     -0.07313446	      9.62726582	      0.61971525	     -3.45327193	      4.19909061	     -0.00052432	      5.05049167	     38.79304174	    -14.18975519	    -12.14751054	    -48.67867499	     -4.62534504	     20.14545392	     25.45456656	      2.53965152	      6.92945231	      7.98722672
      4.01500000	     -8.16032994	     -5.85775399	     -6.38506322	     -0.84940144	     -0.01776298	      0.66705467	     -0.76787105	      9.41727526	      0.97849425	     -3.32477163	      4.57740816	      0.11569485	      5.12481321	     38.82485813	    -14.02870567	    -12.27460941	    -46.88311084	     -4.48719586	     20.61211985	     24.94920717	      2.32001825	      6.84659545	      8.44385994
      4.02000000	     -8.20542722	     -5.78795270	     -6.55070974	     -0.84273674	     -0.01877158	      0.66695885	     -1.23238117	      9.28297908	      1.20026911	     -3.24565557	      4.96623487	      0.14410210	      5.17052372	     39.08932537	    -13.83039815	    -12.17006754	    -45.03829406	     -4.41519975	     21.17989561	     24.69614152	      2.33596764	      6.81261536	      8.66600356
      4.02500000	     -8.03996218	     -5.65935588	     -6.81733370	     -0.83610945	     -0.01953841	      0.66689711	     -1.90421478	      9.04517243	      1.55799568	     -3.19714333	      5.38099283	      0.22897155	      5.20717633	     39.02051280	    -13.62608298	    -12.22673300	    -43.12711234	     -4.28379152	     21.72530876	     24.08493782	      2.09680532	      6.71172160	      9.10590981
      4.03000000	     -8.08618695	     -5.58289460	     -6.96680167	     -0.82939253	     -0.02066290	      0.66675966	     -2.33273909	      8.89739950	      1.77451597	     -3.18628365	      5.79715292	      0.23210078	      5.23852235	     39.21054296	    -13.40412163	    -12.06580152	    -41.19109112	     -4.22791395	     22.31208410	     23.75659915	      2.12007086	      6.66802570	      9.31484822
      4.03500000	     -7.89655013	     -5.45969384	     -7.18625564	     -0.82270967	     -0.02152505	      0.66658458	     -3.00691613	      8.64819016	      2.11939246	     -3.18392762	      6.22836738	      0.30376377	      5.21481204	     39.06295665	    -13.15952593	    -12.01362702	    -39.24209357	     -4.05865086	     22.87011407	     22.80772576	      1.86257976	      6.56834924	      9.69182884
